<svg id="Camada_1" data-name="Camada 1" xmlns="http://www.w3.org/2000/svg" viewBox="0 0 700 700"><title>Bandeira China</title><path d="M0,111.92V567.73H700V111.92Zm202.29,21-.82,13,12.1,4.83L201,154l-.88,13-7-11-12.62,3.22,8.33-10-7-11L194,143ZM99,152.64l12.26,37.67h39.64l-32.07,23.33L131,251.38,99,228.05,66.87,251.38,79.1,213.64,47,190.31H86.68Zm127,19.21,9.18,9.24,11.67-5.9-6,11.6,9.19,9.27L237.22,194l-6,11.64-2-12.91-12.9-2.07L228,184.75ZM233.44,228v.06l4,12.42h13.07l-10.59,7.65,4,12.42-10.53-7.67-10.59,7.67,4-12.42-10.53-7.67h13Zm-31.21,39.88-.88,13,12.14,4.85L200.84,289,200,302l-7-11-12.65,3.22,8.32-10-6.95-11.07L193.86,278Z"/></svg>