<svg id="Camada_1" data-name="Camada 1" xmlns="http://www.w3.org/2000/svg" viewBox="0 0 700 700"><title>Bandeirinha Inglaterra</title><path d="M1.15,111.75V586.19h697.7V111.75ZM276.56,247.62V125.71H303V301.23H15.1v-25.7H163.45L15.1,174.91V141.12L214.86,275.53h50.68L44.48,125.7H95.89ZM604.85,125.71h51.41L434.46,274.79h50.68L684.9,140.39v33.79L535.81,275.53H684.17V302H397.74V125.7h25.71V247.62Zm80,431.11L484.4,422.42H433.72L656.26,572.24H604.85L423.44,450.33V572.24H397V396.72H684.16v25.7H535.81l148.35,99.89v34.51ZM95.15,572.24H43.74L266.27,422.41H215.6L15.1,556.81V522.3l149.09-99.89H15.1V396H302.26V571.5H276.55V450.32Z"/></svg>